<?xml version="1.0" encoding="utf-8"?>
<!-- Generator: Adobe Illustrator 24.2.3, SVG Export Plug-In . SVG Version: 6.00 Build 0)  -->
<svg version="1.1" id="Camada_1" xmlns="http://www.w3.org/2000/svg" xmlns:xlink="http://www.w3.org/1999/xlink" x="0px" y="0px"
	 viewBox="0 0 714 179.3" style="enable-background:new 0 0 714 179.3;" xml:space="preserve">
<style type="text/css">
	.st0{fill:#201512;}
	.st1{fill:#D97527;}
	.st2{clip-path:url(#SVGID_2_);fill:url(#SVGID_3_);}
	.st3{clip-path:url(#SVGID_5_);}
	.st4{clip-path:url(#SVGID_7_);fill:url(#SVGID_8_);}
	.st5{fill:#B77137;}
	.st6{clip-path:url(#SVGID_10_);fill:url(#SVGID_11_);}
	.st7{fill:#AAB74D;}
</style>
<g>
	<g>
		<path class="st0" d="M453.4,178.3V156c0-0.2,0.1-0.3,0.3-0.3h1.7c0.2,0,0.3,0.1,0.3,0.3v22.3c0,0.2-0.1,0.3-0.3,0.3h-1.7
			C453.5,178.6,453.4,178.5,453.4,178.3"/>
		<path class="st0" d="M476.5,155.7h1.6c0.2,0,0.3,0.1,0.3,0.3v22.3c0,0.2-0.1,0.3-0.3,0.3h-1.9c-0.2,0-0.3-0.1-0.4-0.3l-6.4-16.9
			c0-0.1-0.1-0.1-0.1-0.1c0,0-0.1,0.1-0.1,0.1l0,16.8c0,0.2-0.1,0.3-0.3,0.3h-1.7c-0.2,0-0.3-0.1-0.3-0.3V156c0-0.2,0.1-0.3,0.3-0.3
			h1.9c0.2,0,0.3,0.1,0.4,0.3l6.4,17c0,0.1,0.1,0.1,0.1,0.1c0,0,0.1,0,0.1-0.1V156C476.1,155.8,476.2,155.7,476.5,155.7"/>
		<path class="st0" d="M490.6,177.3c-1-1-1.5-2.4-1.5-4.1v-12.1c0-1.7,0.5-3.1,1.5-4.1c1-1,2.4-1.5,4-1.5c1.7,0,3.1,0.5,4.1,1.5
			c1,1,1.5,2.4,1.5,4.1v0.6c0,0.2-0.1,0.3-0.3,0.3l-1.7,0.1c-0.2,0-0.3-0.1-0.3-0.3v-0.8c0-1-0.3-1.9-0.9-2.5
			c-0.6-0.6-1.4-0.9-2.4-0.9c-1,0-1.7,0.3-2.3,0.9c-0.6,0.6-0.9,1.5-0.9,2.5v12.5c0,1,0.3,1.9,0.9,2.5c0.6,0.6,1.4,0.9,2.3,0.9
			c1,0,1.8-0.3,2.4-0.9c0.6-0.6,0.9-1.5,0.9-2.5v-0.8c0-0.2,0.1-0.3,0.3-0.3l1.7,0.1c0.2,0,0.3,0.1,0.3,0.3v0.5
			c0,1.7-0.5,3.1-1.5,4.1c-1,1-2.4,1.5-4.1,1.5C493,178.9,491.6,178.4,490.6,177.3"/>
		<path class="st0" d="M511.8,177.3c-1-1-1.6-2.4-1.6-4.2v-12c0-1.7,0.5-3.1,1.6-4.2c1-1,2.4-1.6,4.1-1.6c1.7,0,3.1,0.5,4.1,1.6
			c1,1,1.6,2.4,1.6,4.2v12c0,1.7-0.5,3.1-1.6,4.1c-1,1.1-2.4,1.6-4.1,1.6C514.2,178.9,512.8,178.4,511.8,177.3 M518.3,175.9
			c0.6-0.7,0.9-1.5,0.9-2.6v-12.2c0-1.1-0.3-1.9-0.9-2.6c-0.6-0.7-1.4-1-2.4-1c-1,0-1.8,0.3-2.4,1c-0.6,0.7-0.9,1.5-0.9,2.6v12.2
			c0,1,0.3,1.9,0.9,2.6c0.6,0.7,1.4,1,2.4,1C516.9,176.9,517.7,176.5,518.3,175.9"/>
		<path class="st0" d="M541.1,178.4l-3.3-10.1c0-0.1-0.1-0.1-0.1-0.1h-2.8c-0.1,0-0.1,0-0.1,0.1v10c0,0.2-0.1,0.3-0.3,0.3h-1.7
			c-0.2,0-0.3-0.1-0.3-0.3V156c0-0.2,0.1-0.3,0.3-0.3h5.4c1.6,0,2.9,0.6,3.9,1.8c1,1.2,1.5,2.7,1.5,4.6c0,1.4-0.3,2.6-0.9,3.7
			c-0.6,1-1.4,1.7-2.5,2.2c-0.1,0-0.1,0.1-0.1,0.2l3.6,10.2l0,0.1c0,0.2-0.1,0.2-0.3,0.2h-1.7C541.3,178.6,541.1,178.5,541.1,178.4
			 M534.6,157.9v8.3c0,0.1,0,0.1,0.1,0.1h2.9c1,0,1.8-0.4,2.4-1.2c0.6-0.8,0.9-1.8,0.9-3.1c0-1.3-0.3-2.3-0.9-3.1
			c-0.6-0.8-1.4-1.2-2.4-1.2h-2.9C534.7,157.7,534.6,157.8,534.6,157.9"/>
		<path class="st0" d="M562.9,157.4c1,1.2,1.5,2.7,1.5,4.6c0,1.9-0.5,3.4-1.4,4.5c-1,1.1-2.2,1.7-3.8,1.7h-3.4c-0.1,0-0.1,0-0.1,0.1
			v9.9c0,0.2-0.1,0.3-0.3,0.3h-1.7c-0.2,0-0.3-0.1-0.3-0.3V156c0-0.2,0.1-0.3,0.3-0.3h5.4C560.6,155.7,561.9,156.3,562.9,157.4
			 M561.1,165.2c0.6-0.8,0.9-1.8,0.9-3.1s-0.3-2.4-0.9-3.2c-0.6-0.8-1.4-1.2-2.4-1.2h-3c-0.1,0-0.1,0-0.1,0.1v8.4
			c0,0.1,0,0.1,0.1,0.1h3C559.7,166.4,560.5,166,561.1,165.2"/>
		<path class="st0" d="M575.4,177.3c-1-1-1.6-2.4-1.6-4.2v-12c0-1.7,0.5-3.1,1.6-4.2c1-1,2.4-1.6,4.1-1.6c1.7,0,3.1,0.5,4.1,1.6
			c1,1,1.6,2.4,1.6,4.2v12c0,1.7-0.5,3.1-1.6,4.1c-1,1.1-2.4,1.6-4.1,1.6C577.8,178.9,576.4,178.4,575.4,177.3 M581.9,175.9
			c0.6-0.7,0.9-1.5,0.9-2.6v-12.2c0-1.1-0.3-1.9-0.9-2.6c-0.6-0.7-1.4-1-2.4-1c-1,0-1.8,0.3-2.4,1c-0.6,0.7-0.9,1.5-0.9,2.6v12.2
			c0,1,0.3,1.9,0.9,2.6c0.6,0.7,1.4,1,2.4,1C580.4,176.9,581.2,176.5,581.9,175.9"/>
		<path class="st0" d="M604.6,178.4l-3.3-10.1c0-0.1-0.1-0.1-0.1-0.1h-2.8c-0.1,0-0.1,0-0.1,0.1v10c0,0.2-0.1,0.3-0.3,0.3h-1.7
			c-0.2,0-0.3-0.1-0.3-0.3V156c0-0.2,0.1-0.3,0.3-0.3h5.4c1.6,0,2.9,0.6,3.9,1.8c1,1.2,1.5,2.7,1.5,4.6c0,1.4-0.3,2.6-0.9,3.7
			c-0.6,1-1.4,1.7-2.5,2.2c-0.1,0-0.1,0.1-0.1,0.2l3.6,10.2l0,0.1c0,0.2-0.1,0.2-0.3,0.2H605C604.8,178.6,604.7,178.5,604.6,178.4
			 M598.2,157.9v8.3c0,0.1,0,0.1,0.1,0.1h2.9c1,0,1.8-0.4,2.4-1.2c0.6-0.8,0.9-1.8,0.9-3.1c0-1.3-0.3-2.3-0.9-3.1
			c-0.6-0.8-1.4-1.2-2.4-1.2h-2.9C598.2,157.7,598.2,157.8,598.2,157.9"/>
		<path class="st0" d="M625.6,178.3l-0.8-4.1c0,0,0-0.1,0-0.1c0,0-0.1,0-0.1,0h-5.9c0,0-0.1,0-0.1,0s0,0.1,0,0.1l-0.8,4.1
			c0,0.2-0.1,0.3-0.4,0.3h-1.7c-0.1,0-0.2,0-0.2-0.1c-0.1-0.1-0.1-0.2,0-0.3l4.9-22.3c0-0.2,0.2-0.3,0.4-0.3h2
			c0.2,0,0.3,0.1,0.4,0.3l5,22.3v0.1c0,0.2-0.1,0.3-0.3,0.3H626C625.8,178.6,625.6,178.5,625.6,178.3 M619,172.2h5.2
			c0.1,0,0.1,0,0.1-0.1l-2.6-12.9c0-0.1,0-0.1-0.1-0.1c0,0,0,0-0.1,0.1l-2.6,12.9C618.9,172.2,619,172.2,619,172.2"/>
		<path class="st0" d="M637.3,178.3V156c0-0.2,0.1-0.3,0.3-0.3h5c1.7,0,3,0.6,4,1.7c1,1.1,1.5,2.6,1.5,4.4v10.7
			c0,1.9-0.5,3.3-1.5,4.4c-1,1.1-2.3,1.7-4,1.7h-5C637.4,178.6,637.3,178.5,637.3,178.3 M639.7,176.6l2.9,0c1,0,1.7-0.4,2.3-1.1
			c0.6-0.7,0.9-1.7,0.9-3v-10.5c0-1.3-0.3-2.3-0.9-3c-0.6-0.7-1.4-1.1-2.4-1.1h-2.9c-0.1,0-0.1,0-0.1,0.1v18.6
			C639.6,176.6,639.6,176.6,639.7,176.6"/>
		<path class="st0" d="M660.1,177.3c-1-1-1.6-2.4-1.6-4.2v-12c0-1.7,0.5-3.1,1.6-4.2c1-1,2.4-1.6,4.1-1.6c1.7,0,3.1,0.5,4.1,1.6
			c1,1,1.6,2.4,1.6,4.2v12c0,1.7-0.5,3.1-1.6,4.1c-1,1.1-2.4,1.6-4.1,1.6C662.4,178.9,661.1,178.4,660.1,177.3 M666.6,175.9
			c0.6-0.7,0.9-1.5,0.9-2.6v-12.2c0-1.1-0.3-1.9-0.9-2.6c-0.6-0.7-1.4-1-2.4-1c-1,0-1.8,0.3-2.4,1c-0.6,0.7-0.9,1.5-0.9,2.6v12.2
			c0,1,0.3,1.9,0.9,2.6c0.6,0.7,1.4,1,2.4,1C665.1,176.9,665.9,176.5,666.6,175.9"/>
		<path class="st0" d="M689.3,178.4l-3.3-10.1c0-0.1-0.1-0.1-0.1-0.1H683c-0.1,0-0.1,0-0.1,0.1v10c0,0.2-0.1,0.3-0.3,0.3h-1.7
			c-0.2,0-0.3-0.1-0.3-0.3V156c0-0.2,0.1-0.3,0.3-0.3h5.4c1.6,0,2.9,0.6,3.9,1.8c1,1.2,1.5,2.7,1.5,4.6c0,1.4-0.3,2.6-0.9,3.7
			c-0.6,1-1.4,1.7-2.5,2.2c-0.1,0-0.1,0.1-0.1,0.2l3.6,10.2l0,0.1c0,0.2-0.1,0.2-0.3,0.2h-1.7C689.5,178.6,689.4,178.5,689.3,178.4
			 M682.9,157.9v8.3c0,0.1,0,0.1,0.1,0.1h2.9c1,0,1.8-0.4,2.4-1.2c0.6-0.8,0.9-1.8,0.9-3.1c0-1.3-0.3-2.3-0.9-3.1
			c-0.6-0.8-1.4-1.2-2.4-1.2H683C682.9,157.7,682.9,157.8,682.9,157.9"/>
		<path class="st0" d="M710.3,178.3l-0.8-4.1c0,0,0-0.1,0-0.1c0,0-0.1,0-0.1,0h-5.9c0,0-0.1,0-0.1,0s0,0.1,0,0.1l-0.8,4.1
			c0,0.2-0.1,0.3-0.4,0.3h-1.7c-0.1,0-0.2,0-0.2-0.1c-0.1-0.1-0.1-0.2,0-0.3L705,156c0-0.2,0.2-0.3,0.4-0.3h2c0.2,0,0.3,0.1,0.4,0.3
			l5,22.3v0.1c0,0.2-0.1,0.3-0.3,0.3h-1.7C710.5,178.6,710.3,178.5,710.3,178.3 M703.7,172.2h5.2c0.1,0,0.1,0,0.1-0.1l-2.6-12.9
			c0-0.1,0-0.1-0.1-0.1c0,0,0,0-0.1,0.1l-2.6,12.9C703.6,172.2,703.7,172.2,703.7,172.2"/>
		<path class="st1" d="M436.9,133.2c-8.4,0-15.4-1.9-21.1-5.6c-5.7-3.7-9.7-8.8-12.1-15.2L418,104c3.3,8.6,9.8,12.9,19.4,12.9
			c4.7,0,8.1-0.8,10.2-2.5c2.2-1.7,3.3-3.8,3.3-6.4c0-3-1.3-5.3-4-6.9c-2.7-1.6-7.4-3.4-14.2-5.4c-3.8-1.1-7-2.2-9.6-3.4
			c-2.6-1.1-5.2-2.6-7.8-4.5c-2.6-1.9-4.6-4.3-6-7.2c-1.4-2.9-2-6.3-2-10.1c0-7.6,2.7-13.7,8.1-18.3c5.4-4.5,12-6.8,19.6-6.8
			c6.8,0,12.8,1.7,18,5c5.2,3.3,9.2,8,12.1,13.9l-14,8.1c-3.4-7.2-8.8-10.8-16.2-10.8c-3.5,0-6.2,0.8-8.1,2.4c-2,1.6-3,3.6-3,6.1
			c0,2.7,1.1,4.8,3.3,6.4c2.2,1.6,6.4,3.4,12.7,5.4c2.6,0.8,4.5,1.4,5.8,1.9c1.3,0.4,3.1,1.1,5.4,2c2.3,0.9,4.1,1.8,5.3,2.6
			c1.2,0.8,2.7,1.9,4.3,3.3c1.6,1.4,2.8,2.8,3.7,4.2c0.8,1.4,1.6,3.2,2.2,5.2c0.6,2,0.9,4.3,0.9,6.7c0,7.8-2.8,14-8.5,18.6
			C453.4,130.9,446,133.2,436.9,133.2"/>
		<polygon class="st1" points="532.1,47.1 532.1,63 509.3,63 509.3,131.5 492.6,131.5 492.6,63 470,63 470,47.1 		"/>
		<path class="st1" d="M584.1,131.5L567,102.2h-12.6v29.3h-16.6V47.1h33.8c7.8,0,14.4,2.7,19.9,8.2c5.5,5.5,8.2,12.1,8.2,19.8
			c0,5.2-1.5,10.1-4.5,14.5c-3,4.5-6.9,7.8-11.8,10.1l18.7,31.8H584.1z M554.4,62.7v25h17.1c3.1,0,5.8-1.2,8.1-3.7
			c2.2-2.5,3.4-5.4,3.4-8.9c0-3.5-1.1-6.4-3.4-8.8c-2.3-2.4-4.9-3.6-8.1-3.6H554.4z"/>
		<path class="st1" d="M678.3,120.5c-8.5,8.5-18.9,12.7-31.1,12.7c-12.2,0-22.6-4.2-31-12.7c-8.5-8.5-12.7-18.9-12.7-31.2
			c0-12.3,4.2-22.7,12.7-31.2c8.5-8.5,18.8-12.7,31-12.7c12.2,0,22.6,4.2,31.1,12.7C686.8,66.6,691,77,691,89.3
			C691,101.6,686.8,112,678.3,120.5 M627.8,109.1c5.2,5.2,11.7,7.8,19.4,7.8c7.7,0,14.2-2.6,19.4-7.8c5.2-5.2,7.8-11.8,7.8-19.8
			c0-8-2.6-14.7-7.8-19.9c-5.2-5.2-11.7-7.8-19.4-7.8c-7.7,0-14.2,2.6-19.4,7.8c-5.2,5.2-7.8,11.9-7.8,19.9
			C619.9,97.4,622.5,104,627.8,109.1"/>
		<rect x="697.4" y="47.1" class="st1" width="16.6" height="84.4"/>
		<path class="st1" d="M235.3,110.6c-1.3,1.2-2.8,2.2-4.4,3.1c-3.9,2.1-8.3,3.2-13.1,3.2c-8.2,0-14.8-2.6-19.8-7.7
			c-5-5.1-7.5-11.8-7.5-19.9c0-8.2,2.5-14.9,7.5-20c5-5.1,11.6-7.7,19.8-7.7c4.8,0,9.2,1.1,13,3.2c1.7,0.9,3.2,2,4.5,3.2
			c2-3.5,4.4-6.8,7.5-9.9c1-1,1.9-1.8,2.9-2.7c-2.1-1.7-4.3-3.3-6.8-4.7c-6.5-3.6-13.5-5.4-21.2-5.4c-12.7,0-23.2,4.2-31.5,12.6
			c-8.3,8.4-12.4,18.8-12.4,31.3c0,12.4,4.1,22.8,12.4,31.2c8.3,8.4,18.8,12.7,31.5,12.7c7.7,0,14.8-1.8,21.2-5.4
			c2.5-1.4,4.7-2.9,6.7-4.6c-1-0.9-2-1.7-2.9-2.7C239.8,117.4,237.3,114.1,235.3,110.6"/>
		<path class="st1" d="M315.4,58.2c-8.5-8.5-18.9-12.7-31.1-12.7c-10.8,0-20.2,3.3-28.1,10c-1,0.8-2,1.7-2.9,2.7
			c-3,3-5.5,6.3-7.5,9.9c-3.5,6.3-5.2,13.4-5.2,21.3c0,7.9,1.7,15,5.2,21.3c2,3.5,4.4,6.8,7.5,9.9c1,1,1.9,1.9,2.9,2.7
			c7.9,6.7,17.3,10,28.1,10c12.2,0,22.6-4.2,31.1-12.7c8.5-8.5,12.8-18.9,12.8-31.2C328.2,77,323.9,66.6,315.4,58.2 M303.7,109.1
			c-5.2,5.2-11.7,7.8-19.4,7.8s-14.2-2.6-19.4-7.8c-5.2-5.2-7.8-11.8-7.8-19.8c0-8,2.6-14.7,7.8-19.9c5.2-5.2,11.7-7.8,19.4-7.8
			s14.2,2.6,19.4,7.8c5.2,5.2,7.8,11.9,7.8,19.9C311.5,97.4,308.9,104,303.7,109.1"/>
		<polygon class="st1" points="333.6,62.9 333.6,131.5 350.3,131.5 350.3,86.8 		"/>
		<polygon class="st1" points="382.5,47.1 382.5,98.5 346.3,47.1 333.6,47.1 333.6,55.9 358,90.9 386.4,131.5 399.1,131.5 
			399.1,47.1 		"/>
	</g>
	<g>
		<g>
			<defs>
				<path id="SVGID_1_" d="M6.1,30.6c-3.4,0-6.1,2.7-6.1,6.1v78.9c0,3.4,2.7,6.1,6.1,6.1h39.5V83.3c0-5.1,4.1-9.2,9.2-9.2h36.4V61.3
					H66.6c-3.4,0-6.1-2.7-6.1-6.1V30.6H6.1z"/>
			</defs>
			<clipPath id="SVGID_2_">
				<use xlink:href="#SVGID_1_"  style="overflow:visible;"/>
			</clipPath>
			
				<linearGradient id="SVGID_3_" gradientUnits="userSpaceOnUse" x1="-63.933" y1="387.2917" x2="-62.933" y2="387.2917" gradientTransform="matrix(0.361 0 0 -0.361 414.8635 216.0263)">
				<stop  offset="0" style="stop-color:#C7D552"/>
				<stop  offset="1" style="stop-color:#DEDD1E"/>
				<stop  offset="1" style="stop-color:#DEDD1E"/>
			</linearGradient>
			<rect x="0" y="30.6" class="st2" width="91.2" height="91.2"/>
		</g>
		<g>
			<g>
				<defs>
					<rect id="SVGID_4_" x="45.6" y="74.2" width="105.2" height="105.2"/>
				</defs>
				<clipPath id="SVGID_5_">
					<use xlink:href="#SVGID_4_"  style="overflow:visible;"/>
				</clipPath>
				<g class="st3">
					<defs>
						<path id="SVGID_6_" d="M141.6,74.2H91.2v41.5c0,3.4-2.7,6.1-6.1,6.1H45.6v48.3c0,5.1,4.1,9.2,9.2,9.2h86.8
							c5.1,0,9.2-4.1,9.2-9.2V83.3C150.7,78.3,146.6,74.2,141.6,74.2"/>
					</defs>
					<clipPath id="SVGID_7_">
						<use xlink:href="#SVGID_6_"  style="overflow:visible;"/>
					</clipPath>
					
						<linearGradient id="SVGID_8_" gradientUnits="userSpaceOnUse" x1="-63.933" y1="387.3677" x2="-62.933" y2="387.3677" gradientTransform="matrix(68.4643 -118.5836 -118.5836 -68.4643 50376.4961 19125.4648)">
						<stop  offset="0" style="stop-color:#E27A26"/>
						<stop  offset="1" style="stop-color:#F6B63D"/>
					</linearGradient>
					<polygon class="st4" points="0,153 71.9,28.6 196.3,100.4 124.4,224.8 					"/>
				</g>
			</g>
		</g>
		<path class="st5" d="M91.2,115.7V74.2H54.8c-5.1,0-9.2,4.1-9.2,9.2v38.5H85C88.4,121.8,91.2,119,91.2,115.7"/>
		<g>
			<defs>
				<path id="SVGID_9_" d="M66.6,0c-3.4,0-6.1,2.7-6.1,6.1v24.5H85c3.4,0,6.1,2.7,6.1,6.1v24.5h24.5c3.4,0,6.1-2.7,6.1-6.1v-49
					c0-3.4-2.7-6.1-6.1-6.1H66.6z"/>
			</defs>
			<clipPath id="SVGID_10_">
				<use xlink:href="#SVGID_9_"  style="overflow:visible;"/>
			</clipPath>
			
				<linearGradient id="SVGID_11_" gradientUnits="userSpaceOnUse" x1="-63.933" y1="387.293" x2="-62.933" y2="387.293" gradientTransform="matrix(33.0673 -57.2742 -57.2742 -33.0673 24373.8906 9198.625)">
				<stop  offset="0" style="stop-color:#F4D95A"/>
				<stop  offset="1" style="stop-color:#FFEE00"/>
			</linearGradient>
			<polygon class="st6" points="34,45.9 75.8,-26.5 148.3,15.3 106.5,87.8 			"/>
		</g>
		<path class="st7" d="M66.6,61.3h24.5V36.8c0-3.4-2.7-6.1-6.1-6.1H60.5v24.5C60.5,58.5,63.3,61.3,66.6,61.3"/>
	</g>
</g>
</svg>
