<?xml version="1.0" standalone="no"?>
<!DOCTYPE svg PUBLIC "-//W3C//DTD SVG 20010904//EN"
 "http://www.w3.org/TR/2001/REC-SVG-20010904/DTD/svg10.dtd">
<svg version="1.0" xmlns="http://www.w3.org/2000/svg"
 width="583.000000pt" height="195.000000pt" viewBox="0 0 583.000000 195.000000"
 preserveAspectRatio="xMidYMid meet">

<g transform="translate(0.000000,195.000000) scale(0.100000,-0.100000)"
fill="#000000" stroke="none">
<path d="M1950 1525 l0 -425 -245 0 c-225 0 -246 1 -252 18 -20 61 -59 131
-95 175 -41 48 -112 107 -130 107 -4 0 -8 -67 -8 -150 l0 -150 -60 0 -60 0 0
179 0 179 -31 6 c-40 8 -133 8 -181 0 l-38 -7 0 -178 0 -179 -55 0 -55 0 0
150 c0 83 -4 150 -9 150 -12 0 -75 -44 -108 -77 -42 -41 -89 -115 -110 -173
l-18 -50 -247 0 -248 0 0 -125 0 -125 250 0 c193 0 250 -3 250 -12 0 -25 52
-124 90 -174 39 -49 117 -114 139 -114 7 0 11 49 11 150 l0 150 240 0 240 0 0
-150 c0 -83 4 -150 9 -150 5 0 34 20 64 44 60 49 120 133 148 205 l17 46 246
3 246 2 0 -425 0 -425 1940 0 1940 0 0 295 0 295 -83 0 -83 0 -25 63 -24 62
-134 0 -133 0 -21 -62 -21 -63 -88 0 c-48 0 -88 1 -88 3 0 2 45 127 101 278
55 151 114 312 131 359 44 123 37 116 116 117 37 1 73 -2 79 -5 6 -4 68 -164
138 -357 70 -192 129 -352 131 -354 2 -2 4 293 4 657 l0 662 -1940 0 -1940 0
0 -425z m2991 -50 c32 -44 55 -83 53 -87 -3 -4 -32 -6 -65 -4 -45 3 -64 9 -74
22 -44 61 -39 60 -65 23 -13 -19 -24 -35 -26 -37 -5 -8 -110 -10 -122 -3 -10
6 -2 23 31 68 25 33 50 70 56 82 11 20 19 22 84 19 l71 -3 57 -80z m-2391
-372 c0 -262 5 -296 52 -327 61 -40 158 -28 203 25 l25 31 0 258 0 258 75 0
c47 0 78 -5 85 -13 6 -8 9 -104 8 -276 -3 -254 -4 -266 -27 -317 -45 -100
-131 -145 -281 -146 -83 0 -102 3 -152 26 -66 31 -103 66 -129 123 -17 36 -19
69 -19 323 l0 282 80 -2 80 -1 0 -244z m1078 212 l42 -17 0 -85 c0 -77 -2 -84
-17 -78 -170 74 -318 56 -389 -47 -24 -34 -29 -53 -32 -112 -3 -65 -1 -75 27
-118 39 -62 108 -98 188 -100 70 -1 139 10 175 28 45 23 48 19 48 -66 l0 -80
-37 -15 c-21 -9 -70 -21 -111 -27 -321 -47 -552 222 -442 515 43 115 166 208
295 225 78 9 199 -1 253 -23z m269 -118 l2 -148 141 0 141 0 2 148 2 148 83 1
82 1 0 -379 0 -379 -82 3 -83 3 0 153 0 152 -145 0 -145 0 0 -152 0 -153 -82
-3 -83 -3 0 379 0 379 83 -1 82 -1 2 -148z m994 139 c149 -34 258 -155 279
-307 19 -132 -25 -256 -119 -340 -77 -68 -143 -92 -256 -92 -183 0 -309 86
-367 251 -30 86 -22 210 21 297 32 64 96 131 156 163 75 39 191 51 286 28z
m-1658 -1140 c20 -5 27 -12 27 -29 0 -13 -5 -28 -12 -35 -8 -8 -8 -15 2 -27 7
-8 8 -15 2 -15 -5 0 -15 7 -22 15 -17 20 -50 19 -50 -2 0 -36 -15 1 -17 44 -3
45 7 65 31 58 6 -2 23 -6 39 -9z m155 -24 c2 -13 -2 -30 -8 -38 -10 -11 -10
-17 0 -29 9 -11 9 -15 1 -15 -6 0 -14 7 -17 15 -8 20 -34 19 -50 -2 -12 -16
-13 -11 -14 38 0 31 2 58 5 61 3 3 22 2 43 -1 29 -5 38 -11 40 -29z m100 20
c-29 -2 -38 -8 -38 -21 0 -14 6 -17 24 -14 13 3 27 0 30 -6 5 -7 -4 -11 -23
-11 -24 0 -31 -4 -31 -19 0 -15 8 -21 38 -24 34 -3 33 -4 -10 -5 l-48 -2 0 54
c0 54 0 55 33 58 17 2 39 1 47 -2 8 -3 -2 -6 -22 -8z m149 5 c3 -4 -3 -7 -15
-7 -20 0 -22 -5 -22 -50 0 -27 -4 -50 -10 -50 -5 0 -10 23 -10 50 0 44 -3 50
-21 50 -11 0 -18 3 -15 8 5 9 83 8 93 -1z m270 -15 c10 -13 10 -20 -1 -37 -11
-17 -12 -25 -4 -33 7 -7 8 -15 4 -19 -4 -4 -12 0 -17 10 -12 21 -49 23 -49 2
0 -8 -4 -15 -10 -15 -6 0 -10 26 -10 59 l0 59 38 -5 c20 -2 43 -12 49 -21z
m259 -32 c1 -28 -3 -53 -7 -56 -5 -3 -9 23 -9 57 0 73 13 72 16 -1z m466 5
c12 -56 6 -65 -47 -65 l-45 0 0 54 c0 59 7 66 54 56 25 -5 32 -12 38 -45z m68
-5 c0 -27 -4 -52 -10 -55 -6 -4 -10 17 -10 55 0 38 4 59 10 55 6 -3 10 -28 10
-55z m93 -53 c27 -3 26 -4 -10 -5 l-43 -2 0 53 c0 72 14 83 18 14 3 -54 4 -56
35 -60z m77 53 c0 -33 -4 -60 -10 -60 -11 0 -14 103 -3 113 12 12 13 8 13 -53z
m253 46 c20 -5 27 -12 27 -29 0 -13 -5 -28 -12 -35 -8 -8 -8 -15 2 -27 9 -11
9 -15 1 -15 -6 0 -14 7 -17 15 -8 20 -54 20 -54 0 0 -8 -3 -15 -8 -15 -6 0 -9
87 -4 113 1 5 10 6 20 4 9 -3 29 -8 45 -11z m81 -45 c2 -28 -1 -54 -5 -57 -5
-3 -9 23 -9 57 0 74 10 73 14 0z m-2234 40 c0 -4 -11 -6 -25 -3 -31 6 -55 -13
-55 -44 0 -28 32 -48 62 -38 14 4 18 2 14 -5 -11 -17 -57 -13 -78 6 -22 20
-23 56 -2 77 16 17 84 22 84 7z m140 -6 c7 -8 13 -26 13 -40 0 -35 -20 -55
-56 -55 -57 0 -88 58 -51 94 20 20 78 21 94 1z m658 3 c17 -17 15 -73 -2 -87
-8 -7 -32 -11 -53 -9 -31 2 -39 8 -47 30 -7 18 -6 35 2 53 9 20 19 25 50 25
21 0 43 -5 50 -12z m268 -46 c13 -29 19 -52 15 -52 -5 0 -11 7 -15 15 -8 21
-63 19 -75 -2 -5 -10 -12 -15 -16 -11 -10 9 44 110 57 106 6 -2 21 -27 34 -56z
m214 23 c12 -19 23 -35 25 -35 2 0 13 16 25 35 12 19 26 35 31 35 5 0 9 -25 9
-55 0 -30 -4 -55 -10 -55 -5 0 -10 17 -10 38 l0 37 -19 -28 c-10 -16 -22 -29
-26 -29 -4 0 -16 13 -26 29 l-19 28 0 -37 c0 -21 -4 -38 -10 -38 -5 0 -10 25
-10 55 0 30 4 55 9 55 5 0 19 -16 31 -35z m240 16 c24 -46 -3 -91 -55 -91 -39
0 -55 16 -55 55 0 41 16 55 62 55 27 0 40 -5 48 -19z m509 -33 c20 -49 20 -82
0 -45 -13 22 -65 23 -73 1 -4 -9 -9 -14 -12 -11 -9 9 38 107 51 107 7 0 22
-23 34 -52z m330 1 c13 -28 20 -53 17 -56 -3 -3 -8 2 -12 11 -8 21 -74 23 -74
1 0 -8 -5 -15 -11 -15 -6 0 -9 3 -7 8 2 4 11 28 22 55 10 26 24 47 31 47 7 0
22 -23 34 -51z"/>
<path d="M4726 1175 c-59 -21 -88 -46 -119 -106 -25 -46 -28 -62 -24 -111 11
-120 91 -200 205 -201 141 -1 231 113 208 267 -10 63 -68 127 -136 149 -62 20
-83 21 -134 2z"/>
<path d="M3180 166 c0 -22 4 -26 31 -26 26 0 30 3 27 23 -2 16 -11 23 -30 25
-24 3 -28 0 -28 -22z"/>
<path d="M3318 183 c-11 -21 -1 -38 25 -41 25 -3 28 0 25 20 -3 23 -41 39 -50
21z"/>
<path d="M3840 165 c0 -23 4 -26 28 -23 19 2 27 9 27 23 0 14 -8 21 -27 23
-24 3 -28 0 -28 -23z"/>
<path d="M4556 175 c-6 -18 16 -30 39 -21 8 3 15 12 15 21 0 20 -46 20 -54 0z"/>
<path d="M4554 129 c-3 -6 -2 -15 4 -21 15 -15 56 -5 60 15 3 13 -3 17 -27 17
-16 0 -33 -5 -37 -11z"/>
<path d="M5070 165 c0 -23 4 -26 28 -23 19 2 27 9 27 23 0 14 -8 21 -27 23
-24 3 -28 0 -28 -23z"/>
<path d="M3032 178 c-17 -17 -15 -53 3 -68 20 -17 62 -5 70 20 14 44 -41 80
-73 48z"/>
<path d="M3694 182 c-32 -22 -13 -82 26 -82 24 0 50 37 42 59 -10 29 -43 40
-68 23z"/>
<path d="M3990 173 c0 -6 -3 -18 -6 -27 -4 -12 0 -16 15 -16 12 0 21 4 21 8 0
13 -29 48 -30 35z"/>
<path d="M4400 170 c-15 -29 -3 -59 26 -66 30 -8 54 11 54 40 0 46 -59 64 -80
26z"/>
<path d="M4952 160 c-7 -19 -6 -26 5 -28 22 -5 27 5 16 30 l-11 23 -10 -25z"/>
<path d="M5282 155 c-11 -23 -9 -25 12 -25 19 0 23 4 19 20 -8 31 -19 32 -31
5z"/>
<path d="M120 1525 l0 -305 155 0 155 0 26 53 c34 66 152 183 227 225 l57 32
0 150 0 150 -310 0 -310 0 0 -305z"/>
<path d="M850 1700 l0 -130 98 2 c53 2 109 0 125 -5 l27 -7 0 135 0 135 -125
0 -125 0 0 -130z"/>
<path d="M1220 1674 l0 -155 33 -14 c80 -35 187 -135 238 -224 l34 -60 153 -1
152 0 0 305 0 305 -305 0 -305 0 0 -156z"/>
<path d="M5475 1073 c-22 -56 -75 -205 -75 -213 0 -6 38 -10 85 -10 47 0 85 2
85 4 0 6 -80 230 -84 233 -2 2 -7 -4 -11 -14z"/>
<path d="M120 425 l0 -305 310 0 310 0 0 148 0 149 -79 51 c-87 57 -159 130
-203 210 l-30 52 -154 0 -154 0 0 -305z"/>
<path d="M850 611 l0 -118 38 -7 c48 -8 107 -8 166 0 l46 7 0 118 0 119 -125
0 -125 0 0 -119z"/>
<path d="M1490 669 c-41 -71 -155 -183 -223 -219 l-47 -25 0 -152 0 -153 305
0 304 0 3 305 3 305 -155 0 -155 0 -35 -61z"/>
<path d="M968 383 l-118 -4 0 -129 0 -130 125 0 125 0 0 135 c0 74 -3 134 -7
133 -5 -1 -61 -4 -125 -5z"/>
</g>
</svg>
